<svg width="17" height="18" viewBox="0 0 17 18" fill="none" xmlns="http://www.w3.org/2000/svg">
<g id="ic:baseline-language">
<path id="Vector" d="M8.49291 1.5C4.58291 1.5 1.41666 4.86 1.41666 9C1.41666 13.14 4.58291 16.5 8.49291 16.5C12.41 16.5 15.5833 13.14 15.5833 9C15.5833 4.86 12.41 1.5 8.49291 1.5ZM13.4017 6H11.3121C11.0904 5.07109 10.7621 4.17442 10.3346 3.33C11.6267 3.801 12.7154 4.74879 13.4017 6ZM8.49999 3.03C9.08791 3.93 9.54832 4.9275 9.85291 6H7.14707C7.45166 4.9275 7.91207 3.93 8.49999 3.03ZM3.01749 10.5C2.90416 10.02 2.83332 9.5175 2.83332 9C2.83332 8.4825 2.90416 7.98 3.01749 7.5H5.41166C5.35499 7.995 5.31249 8.49 5.31249 9C5.31249 9.51 5.35499 10.005 5.41166 10.5H3.01749ZM3.59832 12H5.68791C5.91457 12.9375 6.24041 13.8375 6.66541 14.67C5.37197 14.2016 4.28245 13.2531 3.59832 12ZM5.68791 6H3.59832C4.28245 4.74688 5.37197 3.79843 6.66541 3.33C6.23788 4.17442 5.9096 5.07109 5.68791 6ZM8.49999 14.97C7.91207 14.07 7.45166 13.0725 7.14707 12H9.85291C9.54832 13.0725 9.08791 14.07 8.49999 14.97ZM10.1575 10.5H6.84249C6.77874 10.005 6.72916 9.51 6.72916 9C6.72916 8.49 6.77874 7.9875 6.84249 7.5H10.1575C10.2212 7.9875 10.2708 8.49 10.2708 9C10.2708 9.51 10.2212 10.005 10.1575 10.5ZM10.3346 14.67C10.7596 13.8375 11.0854 12.9375 11.3121 12H13.4017C12.7154 13.2512 11.6267 14.199 10.3346 14.67ZM11.5883 10.5C11.645 10.005 11.6875 9.51 11.6875 9C11.6875 8.49 11.645 7.995 11.5883 7.5H13.9825C14.0958 7.98 14.1667 8.4825 14.1667 9C14.1667 9.5175 14.0958 10.02 13.9825 10.5H11.5883Z" fill="white"/>
</g>
</svg>
