<svg width="42" height="42" viewBox="0 0 42 42" fill="none" xmlns="http://www.w3.org/2000/svg">
<circle cx="21" cy="21" r="20.2329" fill="#627FE3" fill-opacity="0.15"/>
<circle cx="21" cy="21" r="20.2329" stroke="#C4C4C4" stroke-width="1.53425"/>
<circle cx="21" cy="21" r="20.2329" stroke="url(#paint0_linear_225_38671)" stroke-width="1.53425"/>
<g opacity="0.1">
<path d="M13.2358 12.6327H16.8805L17.2021 10.1672H19.1317L19.2925 12.6327H21.2221V10.1672H23.1516L23.366 12.6327H24.0628C29.0368 14.6052 27.3502 18.5286 25.8852 20.2438C31.4595 23.1381 27.8148 29.5164 25.2956 29.302L23.0444 29.5164V31.8748H21.0613V29.5164H19.1853V31.8748H17.1485V29.5164H13.075V26.5149H15.0046V15.5807H13.2358V12.6327Z" fill="#C4C4C4"/>
<path d="M13.2358 12.6327H16.8805L17.2021 10.1672H19.1317L19.2925 12.6327H21.2221V10.1672H23.1516L23.366 12.6327H24.0628C29.0368 14.6052 27.3502 18.5286 25.8852 20.2438C31.4595 23.1381 27.8148 29.5164 25.2956 29.302L23.0444 29.5164V31.8748H21.0613V29.5164H19.1853V31.8748H17.1485V29.5164H13.075V26.5149H15.0046V15.5807H13.2358V12.6327Z" fill="url(#paint1_linear_225_38671)"/>
</g>
<mask id="path-3-outside-1_225_38671" maskUnits="userSpaceOnUse" x="11.7534" y="8.68481" width="18" height="24" fill="black">
<rect fill="white" x="11.7534" y="8.68481" width="18" height="24"/>
<path fill-rule="evenodd" clip-rule="evenodd" d="M16.8699 9.81278C16.7991 9.88315 16.7401 9.99453 16.739 10.0604C16.7378 10.1261 16.7387 10.6189 16.741 11.1554L16.7451 12.1308L14.8846 12.1457L13.0241 12.1607L12.8887 12.287L12.7534 12.4134V14.1153V15.8172L12.8887 15.9436C13.0187 16.0651 13.057 16.0706 13.8856 16.0865L14.7473 16.1031V21.0478V25.9926L13.8856 26.0091C13.057 26.025 13.0187 26.0305 12.8887 26.152L12.7534 26.2784V27.9803V29.6822L12.8887 29.8086L13.0241 29.935L14.8846 29.9499L16.7451 29.9648L16.741 30.9403C16.7387 31.4767 16.7378 31.9695 16.739 32.0353C16.7401 32.1011 16.7991 32.2125 16.8699 32.2829L16.9987 32.4108H18.1787C19.3501 32.4108 19.3598 32.41 19.5059 32.2851L19.6531 32.1594L19.6692 31.0602L19.6853 29.961H20.207H20.7288V31.058C20.7288 32.1532 20.729 32.1552 20.8576 32.2829L20.9863 32.4108H22.1465C22.8419 32.4108 23.3471 32.3893 23.4076 32.3572C23.6329 32.2374 23.667 32.0574 23.667 30.9874V29.9758L24.3015 29.9389C25.7724 29.8534 26.4875 29.5734 27.4185 28.769C28.0988 28.1811 28.7358 27.1128 29.012 26.0965C29.1383 25.6315 29.1516 25.4939 29.1544 24.6195C29.1572 23.7668 29.1432 23.6009 29.0336 23.1861C28.6484 21.7289 28.103 20.6351 26.8637 20.0332L26.4138 19.8147L26.6448 19.5842C27.8521 18.3801 28.1408 16.648 27.4185 14.9427C26.8468 13.593 25.5543 12.5506 24.0754 12.2469L23.667 12.163V11.1298C23.667 10.0368 23.6338 9.85875 23.4076 9.7385C23.3471 9.70634 22.8419 9.68481 22.1465 9.68481H20.9863L20.8576 9.81278C20.729 9.94048 20.7288 9.94246 20.7288 11.0377V12.1346H20.207H19.6853L19.6692 11.0354L19.6531 9.93621L19.5059 9.81054C19.3598 9.6857 19.3501 9.68481 18.1787 9.68481H16.9987L16.8699 9.81278ZM18.7349 11.7346V12.8462L18.8702 12.9726C19.0027 13.0964 19.0269 13.0993 20.0639 13.1157C20.7493 13.1266 21.1931 13.1116 21.3231 13.0733C21.6392 12.9802 21.6732 12.8408 21.6732 11.6411V10.623H22.1979H22.7226V11.7346C22.7226 13.1024 22.6963 13.0536 23.474 13.1267C24.4015 13.2139 25.05 13.5105 25.6922 14.1412C26.1747 14.6151 26.4783 15.0903 26.6913 15.7051C26.8165 16.0667 26.8361 16.2053 26.8386 16.7476C26.841 17.2683 26.8214 17.4306 26.7219 17.7167C26.5691 18.1556 26.3307 18.5299 25.9734 18.8918C25.8645 19.0021 25.7087 19.1351 25.554 19.2548C25.2341 19.5026 24.7148 19.664 24.7176 20.0687C24.7196 20.3708 24.8526 20.4738 25.3496 20.5583C25.9265 20.6563 26.2418 20.7596 26.6519 20.9849C27.5556 21.4814 27.9997 22.61 28.1858 23.7495C28.2848 24.3552 28.2527 25.179 28.1081 25.7465C27.7141 27.2926 26.9854 28.3238 25.6157 28.769C25.1376 28.9244 25.0522 28.9351 24.0513 28.9653C23.0252 28.9964 22.9886 29.0012 22.8577 29.1234L22.7226 29.2495V30.361V31.4726H22.1979H21.6732V30.451C21.6732 29.263 21.6359 29.1144 21.3132 29.0194C21.1951 28.9846 20.7189 28.9696 20.0639 28.98C19.0269 28.9964 19.0027 28.9993 18.8702 29.1231L18.7349 29.2495V30.361V31.4726H18.2102H17.6855V30.4545C17.6855 29.2529 17.6514 29.1138 17.3356 29.0267C17.2125 28.9928 16.4683 28.9711 15.4162 28.971L13.6979 28.9707V27.9803V26.99L14.4193 26.9896C15.3169 26.9893 15.5162 26.9413 15.6172 26.7013C15.7286 26.4365 15.7286 15.6592 15.6172 15.3943C15.5162 15.1543 15.3169 15.1064 14.4193 15.106L13.6979 15.1057V14.1153V13.125L15.4162 13.1247C16.4683 13.1245 17.2125 13.1029 17.3356 13.069C17.6514 12.9819 17.6855 12.8427 17.6855 11.6411V10.623H18.2102H18.7349V11.7346ZM18.4988 15.1662C18.208 15.325 18.2126 15.2901 18.2114 17.338L18.2104 19.0153C18.2103 19.1537 18.2654 19.2864 18.3636 19.3839C18.4618 19.4815 18.5947 19.5362 18.7332 19.5362H20.0219C21.6123 19.5362 21.9073 19.5027 22.3676 19.2694C23.2948 18.7995 23.7515 17.5966 23.3843 16.5917C23.0798 15.7584 22.4749 15.2864 21.5514 15.1613C21.0007 15.0867 18.6374 15.0905 18.4988 15.1662ZM21.859 16.2194C22.344 16.4438 22.6015 16.9006 22.5515 17.4482C22.517 17.8263 22.3529 18.1324 22.0865 18.3158C21.7164 18.5706 21.5734 18.5933 20.3221 18.5957L19.1547 18.598V17.347V16.0961L20.3746 16.0966C21.544 16.097 21.6055 16.1022 21.859 16.2194ZM18.3668 21.7183C18.2666 21.8178 18.2102 21.9532 18.2102 22.0944V24.2529C18.2102 25.7849 18.2295 26.6676 18.2643 26.7322C18.3956 26.976 18.5112 26.99 20.4075 26.99C22.5414 26.99 22.8566 26.9573 23.438 26.6761C24.3626 26.2289 24.8717 25.3681 24.8732 24.2499C24.8748 23.054 24.2453 22.1376 23.1248 21.7047C22.8722 21.6071 22.7064 21.5987 20.6886 21.5814L18.744 21.5647C18.6028 21.5634 18.467 21.6188 18.3668 21.7183ZM22.9934 22.6783C23.3355 22.8452 23.6301 23.1454 23.791 23.4913C23.882 23.6868 23.9031 23.8304 23.9028 24.2534C23.9023 24.902 23.7869 25.1942 23.3808 25.5758C22.9469 25.9835 22.8507 25.9996 20.8504 25.9996H19.1547V24.2503V22.501L20.9255 22.5172L22.6964 22.5334L22.9934 22.6783Z"/>
</mask>
<path fill-rule="evenodd" clip-rule="evenodd" d="M16.8699 9.81278C16.7991 9.88315 16.7401 9.99453 16.739 10.0604C16.7378 10.1261 16.7387 10.6189 16.741 11.1554L16.7451 12.1308L14.8846 12.1457L13.0241 12.1607L12.8887 12.287L12.7534 12.4134V14.1153V15.8172L12.8887 15.9436C13.0187 16.0651 13.057 16.0706 13.8856 16.0865L14.7473 16.1031V21.0478V25.9926L13.8856 26.0091C13.057 26.025 13.0187 26.0305 12.8887 26.152L12.7534 26.2784V27.9803V29.6822L12.8887 29.8086L13.0241 29.935L14.8846 29.9499L16.7451 29.9648L16.741 30.9403C16.7387 31.4767 16.7378 31.9695 16.739 32.0353C16.7401 32.1011 16.7991 32.2125 16.8699 32.2829L16.9987 32.4108H18.1787C19.3501 32.4108 19.3598 32.41 19.5059 32.2851L19.6531 32.1594L19.6692 31.0602L19.6853 29.961H20.207H20.7288V31.058C20.7288 32.1532 20.729 32.1552 20.8576 32.2829L20.9863 32.4108H22.1465C22.8419 32.4108 23.3471 32.3893 23.4076 32.3572C23.6329 32.2374 23.667 32.0574 23.667 30.9874V29.9758L24.3015 29.9389C25.7724 29.8534 26.4875 29.5734 27.4185 28.769C28.0988 28.1811 28.7358 27.1128 29.012 26.0965C29.1383 25.6315 29.1516 25.4939 29.1544 24.6195C29.1572 23.7668 29.1432 23.6009 29.0336 23.1861C28.6484 21.7289 28.103 20.6351 26.8637 20.0332L26.4138 19.8147L26.6448 19.5842C27.8521 18.3801 28.1408 16.648 27.4185 14.9427C26.8468 13.593 25.5543 12.5506 24.0754 12.2469L23.667 12.163V11.1298C23.667 10.0368 23.6338 9.85875 23.4076 9.7385C23.3471 9.70634 22.8419 9.68481 22.1465 9.68481H20.9863L20.8576 9.81278C20.729 9.94048 20.7288 9.94246 20.7288 11.0377V12.1346H20.207H19.6853L19.6692 11.0354L19.6531 9.93621L19.5059 9.81054C19.3598 9.6857 19.3501 9.68481 18.1787 9.68481H16.9987L16.8699 9.81278ZM18.7349 11.7346V12.8462L18.8702 12.9726C19.0027 13.0964 19.0269 13.0993 20.0639 13.1157C20.7493 13.1266 21.1931 13.1116 21.3231 13.0733C21.6392 12.9802 21.6732 12.8408 21.6732 11.6411V10.623H22.1979H22.7226V11.7346C22.7226 13.1024 22.6963 13.0536 23.474 13.1267C24.4015 13.2139 25.05 13.5105 25.6922 14.1412C26.1747 14.6151 26.4783 15.0903 26.6913 15.7051C26.8165 16.0667 26.8361 16.2053 26.8386 16.7476C26.841 17.2683 26.8214 17.4306 26.7219 17.7167C26.5691 18.1556 26.3307 18.5299 25.9734 18.8918C25.8645 19.0021 25.7087 19.1351 25.554 19.2548C25.2341 19.5026 24.7148 19.664 24.7176 20.0687C24.7196 20.3708 24.8526 20.4738 25.3496 20.5583C25.9265 20.6563 26.2418 20.7596 26.6519 20.9849C27.5556 21.4814 27.9997 22.61 28.1858 23.7495C28.2848 24.3552 28.2527 25.179 28.1081 25.7465C27.7141 27.2926 26.9854 28.3238 25.6157 28.769C25.1376 28.9244 25.0522 28.9351 24.0513 28.9653C23.0252 28.9964 22.9886 29.0012 22.8577 29.1234L22.7226 29.2495V30.361V31.4726H22.1979H21.6732V30.451C21.6732 29.263 21.6359 29.1144 21.3132 29.0194C21.1951 28.9846 20.7189 28.9696 20.0639 28.98C19.0269 28.9964 19.0027 28.9993 18.8702 29.1231L18.7349 29.2495V30.361V31.4726H18.2102H17.6855V30.4545C17.6855 29.2529 17.6514 29.1138 17.3356 29.0267C17.2125 28.9928 16.4683 28.9711 15.4162 28.971L13.6979 28.9707V27.9803V26.99L14.4193 26.9896C15.3169 26.9893 15.5162 26.9413 15.6172 26.7013C15.7286 26.4365 15.7286 15.6592 15.6172 15.3943C15.5162 15.1543 15.3169 15.1064 14.4193 15.106L13.6979 15.1057V14.1153V13.125L15.4162 13.1247C16.4683 13.1245 17.2125 13.1029 17.3356 13.069C17.6514 12.9819 17.6855 12.8427 17.6855 11.6411V10.623H18.2102H18.7349V11.7346ZM18.4988 15.1662C18.208 15.325 18.2126 15.2901 18.2114 17.338L18.2104 19.0153C18.2103 19.1537 18.2654 19.2864 18.3636 19.3839C18.4618 19.4815 18.5947 19.5362 18.7332 19.5362H20.0219C21.6123 19.5362 21.9073 19.5027 22.3676 19.2694C23.2948 18.7995 23.7515 17.5966 23.3843 16.5917C23.0798 15.7584 22.4749 15.2864 21.5514 15.1613C21.0007 15.0867 18.6374 15.0905 18.4988 15.1662ZM21.859 16.2194C22.344 16.4438 22.6015 16.9006 22.5515 17.4482C22.517 17.8263 22.3529 18.1324 22.0865 18.3158C21.7164 18.5706 21.5734 18.5933 20.3221 18.5957L19.1547 18.598V17.347V16.0961L20.3746 16.0966C21.544 16.097 21.6055 16.1022 21.859 16.2194ZM18.3668 21.7183C18.2666 21.8178 18.2102 21.9532 18.2102 22.0944V24.2529C18.2102 25.7849 18.2295 26.6676 18.2643 26.7322C18.3956 26.976 18.5112 26.99 20.4075 26.99C22.5414 26.99 22.8566 26.9573 23.438 26.6761C24.3626 26.2289 24.8717 25.3681 24.8732 24.2499C24.8748 23.054 24.2453 22.1376 23.1248 21.7047C22.8722 21.6071 22.7064 21.5987 20.6886 21.5814L18.744 21.5647C18.6028 21.5634 18.467 21.6188 18.3668 21.7183ZM22.9934 22.6783C23.3355 22.8452 23.6301 23.1454 23.791 23.4913C23.882 23.6868 23.9031 23.8304 23.9028 24.2534C23.9023 24.902 23.7869 25.1942 23.3808 25.5758C22.9469 25.9835 22.8507 25.9996 20.8504 25.9996H19.1547V24.2503V22.501L20.9255 22.5172L22.6964 22.5334L22.9934 22.6783Z" fill="#C4C4C4"/>
<path fill-rule="evenodd" clip-rule="evenodd" d="M16.8699 9.81278C16.7991 9.88315 16.7401 9.99453 16.739 10.0604C16.7378 10.1261 16.7387 10.6189 16.741 11.1554L16.7451 12.1308L14.8846 12.1457L13.0241 12.1607L12.8887 12.287L12.7534 12.4134V14.1153V15.8172L12.8887 15.9436C13.0187 16.0651 13.057 16.0706 13.8856 16.0865L14.7473 16.1031V21.0478V25.9926L13.8856 26.0091C13.057 26.025 13.0187 26.0305 12.8887 26.152L12.7534 26.2784V27.9803V29.6822L12.8887 29.8086L13.0241 29.935L14.8846 29.9499L16.7451 29.9648L16.741 30.9403C16.7387 31.4767 16.7378 31.9695 16.739 32.0353C16.7401 32.1011 16.7991 32.2125 16.8699 32.2829L16.9987 32.4108H18.1787C19.3501 32.4108 19.3598 32.41 19.5059 32.2851L19.6531 32.1594L19.6692 31.0602L19.6853 29.961H20.207H20.7288V31.058C20.7288 32.1532 20.729 32.1552 20.8576 32.2829L20.9863 32.4108H22.1465C22.8419 32.4108 23.3471 32.3893 23.4076 32.3572C23.6329 32.2374 23.667 32.0574 23.667 30.9874V29.9758L24.3015 29.9389C25.7724 29.8534 26.4875 29.5734 27.4185 28.769C28.0988 28.1811 28.7358 27.1128 29.012 26.0965C29.1383 25.6315 29.1516 25.4939 29.1544 24.6195C29.1572 23.7668 29.1432 23.6009 29.0336 23.1861C28.6484 21.7289 28.103 20.6351 26.8637 20.0332L26.4138 19.8147L26.6448 19.5842C27.8521 18.3801 28.1408 16.648 27.4185 14.9427C26.8468 13.593 25.5543 12.5506 24.0754 12.2469L23.667 12.163V11.1298C23.667 10.0368 23.6338 9.85875 23.4076 9.7385C23.3471 9.70634 22.8419 9.68481 22.1465 9.68481H20.9863L20.8576 9.81278C20.729 9.94048 20.7288 9.94246 20.7288 11.0377V12.1346H20.207H19.6853L19.6692 11.0354L19.6531 9.93621L19.5059 9.81054C19.3598 9.6857 19.3501 9.68481 18.1787 9.68481H16.9987L16.8699 9.81278ZM18.7349 11.7346V12.8462L18.8702 12.9726C19.0027 13.0964 19.0269 13.0993 20.0639 13.1157C20.7493 13.1266 21.1931 13.1116 21.3231 13.0733C21.6392 12.9802 21.6732 12.8408 21.6732 11.6411V10.623H22.1979H22.7226V11.7346C22.7226 13.1024 22.6963 13.0536 23.474 13.1267C24.4015 13.2139 25.05 13.5105 25.6922 14.1412C26.1747 14.6151 26.4783 15.0903 26.6913 15.7051C26.8165 16.0667 26.8361 16.2053 26.8386 16.7476C26.841 17.2683 26.8214 17.4306 26.7219 17.7167C26.5691 18.1556 26.3307 18.5299 25.9734 18.8918C25.8645 19.0021 25.7087 19.1351 25.554 19.2548C25.2341 19.5026 24.7148 19.664 24.7176 20.0687C24.7196 20.3708 24.8526 20.4738 25.3496 20.5583C25.9265 20.6563 26.2418 20.7596 26.6519 20.9849C27.5556 21.4814 27.9997 22.61 28.1858 23.7495C28.2848 24.3552 28.2527 25.179 28.1081 25.7465C27.7141 27.2926 26.9854 28.3238 25.6157 28.769C25.1376 28.9244 25.0522 28.9351 24.0513 28.9653C23.0252 28.9964 22.9886 29.0012 22.8577 29.1234L22.7226 29.2495V30.361V31.4726H22.1979H21.6732V30.451C21.6732 29.263 21.6359 29.1144 21.3132 29.0194C21.1951 28.9846 20.7189 28.9696 20.0639 28.98C19.0269 28.9964 19.0027 28.9993 18.8702 29.1231L18.7349 29.2495V30.361V31.4726H18.2102H17.6855V30.4545C17.6855 29.2529 17.6514 29.1138 17.3356 29.0267C17.2125 28.9928 16.4683 28.9711 15.4162 28.971L13.6979 28.9707V27.9803V26.99L14.4193 26.9896C15.3169 26.9893 15.5162 26.9413 15.6172 26.7013C15.7286 26.4365 15.7286 15.6592 15.6172 15.3943C15.5162 15.1543 15.3169 15.1064 14.4193 15.106L13.6979 15.1057V14.1153V13.125L15.4162 13.1247C16.4683 13.1245 17.2125 13.1029 17.3356 13.069C17.6514 12.9819 17.6855 12.8427 17.6855 11.6411V10.623H18.2102H18.7349V11.7346ZM18.4988 15.1662C18.208 15.325 18.2126 15.2901 18.2114 17.338L18.2104 19.0153C18.2103 19.1537 18.2654 19.2864 18.3636 19.3839C18.4618 19.4815 18.5947 19.5362 18.7332 19.5362H20.0219C21.6123 19.5362 21.9073 19.5027 22.3676 19.2694C23.2948 18.7995 23.7515 17.5966 23.3843 16.5917C23.0798 15.7584 22.4749 15.2864 21.5514 15.1613C21.0007 15.0867 18.6374 15.0905 18.4988 15.1662ZM21.859 16.2194C22.344 16.4438 22.6015 16.9006 22.5515 17.4482C22.517 17.8263 22.3529 18.1324 22.0865 18.3158C21.7164 18.5706 21.5734 18.5933 20.3221 18.5957L19.1547 18.598V17.347V16.0961L20.3746 16.0966C21.544 16.097 21.6055 16.1022 21.859 16.2194ZM18.3668 21.7183C18.2666 21.8178 18.2102 21.9532 18.2102 22.0944V24.2529C18.2102 25.7849 18.2295 26.6676 18.2643 26.7322C18.3956 26.976 18.5112 26.99 20.4075 26.99C22.5414 26.99 22.8566 26.9573 23.438 26.6761C24.3626 26.2289 24.8717 25.3681 24.8732 24.2499C24.8748 23.054 24.2453 22.1376 23.1248 21.7047C22.8722 21.6071 22.7064 21.5987 20.6886 21.5814L18.744 21.5647C18.6028 21.5634 18.467 21.6188 18.3668 21.7183ZM22.9934 22.6783C23.3355 22.8452 23.6301 23.1454 23.791 23.4913C23.882 23.6868 23.9031 23.8304 23.9028 24.2534C23.9023 24.902 23.7869 25.1942 23.3808 25.5758C22.9469 25.9835 22.8507 25.9996 20.8504 25.9996H19.1547V24.2503V22.501L20.9255 22.5172L22.6964 22.5334L22.9934 22.6783Z" fill="url(#paint2_linear_225_38671)"/>
<path fill-rule="evenodd" clip-rule="evenodd" d="M16.8699 9.81278C16.7991 9.88315 16.7401 9.99453 16.739 10.0604C16.7378 10.1261 16.7387 10.6189 16.741 11.1554L16.7451 12.1308L14.8846 12.1457L13.0241 12.1607L12.8887 12.287L12.7534 12.4134V14.1153V15.8172L12.8887 15.9436C13.0187 16.0651 13.057 16.0706 13.8856 16.0865L14.7473 16.1031V21.0478V25.9926L13.8856 26.0091C13.057 26.025 13.0187 26.0305 12.8887 26.152L12.7534 26.2784V27.9803V29.6822L12.8887 29.8086L13.0241 29.935L14.8846 29.9499L16.7451 29.9648L16.741 30.9403C16.7387 31.4767 16.7378 31.9695 16.739 32.0353C16.7401 32.1011 16.7991 32.2125 16.8699 32.2829L16.9987 32.4108H18.1787C19.3501 32.4108 19.3598 32.41 19.5059 32.2851L19.6531 32.1594L19.6692 31.0602L19.6853 29.961H20.207H20.7288V31.058C20.7288 32.1532 20.729 32.1552 20.8576 32.2829L20.9863 32.4108H22.1465C22.8419 32.4108 23.3471 32.3893 23.4076 32.3572C23.6329 32.2374 23.667 32.0574 23.667 30.9874V29.9758L24.3015 29.9389C25.7724 29.8534 26.4875 29.5734 27.4185 28.769C28.0988 28.1811 28.7358 27.1128 29.012 26.0965C29.1383 25.6315 29.1516 25.4939 29.1544 24.6195C29.1572 23.7668 29.1432 23.6009 29.0336 23.1861C28.6484 21.7289 28.103 20.6351 26.8637 20.0332L26.4138 19.8147L26.6448 19.5842C27.8521 18.3801 28.1408 16.648 27.4185 14.9427C26.8468 13.593 25.5543 12.5506 24.0754 12.2469L23.667 12.163V11.1298C23.667 10.0368 23.6338 9.85875 23.4076 9.7385C23.3471 9.70634 22.8419 9.68481 22.1465 9.68481H20.9863L20.8576 9.81278C20.729 9.94048 20.7288 9.94246 20.7288 11.0377V12.1346H20.207H19.6853L19.6692 11.0354L19.6531 9.93621L19.5059 9.81054C19.3598 9.6857 19.3501 9.68481 18.1787 9.68481H16.9987L16.8699 9.81278ZM18.7349 11.7346V12.8462L18.8702 12.9726C19.0027 13.0964 19.0269 13.0993 20.0639 13.1157C20.7493 13.1266 21.1931 13.1116 21.3231 13.0733C21.6392 12.9802 21.6732 12.8408 21.6732 11.6411V10.623H22.1979H22.7226V11.7346C22.7226 13.1024 22.6963 13.0536 23.474 13.1267C24.4015 13.2139 25.05 13.5105 25.6922 14.1412C26.1747 14.6151 26.4783 15.0903 26.6913 15.7051C26.8165 16.0667 26.8361 16.2053 26.8386 16.7476C26.841 17.2683 26.8214 17.4306 26.7219 17.7167C26.5691 18.1556 26.3307 18.5299 25.9734 18.8918C25.8645 19.0021 25.7087 19.1351 25.554 19.2548C25.2341 19.5026 24.7148 19.664 24.7176 20.0687C24.7196 20.3708 24.8526 20.4738 25.3496 20.5583C25.9265 20.6563 26.2418 20.7596 26.6519 20.9849C27.5556 21.4814 27.9997 22.61 28.1858 23.7495C28.2848 24.3552 28.2527 25.179 28.1081 25.7465C27.7141 27.2926 26.9854 28.3238 25.6157 28.769C25.1376 28.9244 25.0522 28.9351 24.0513 28.9653C23.0252 28.9964 22.9886 29.0012 22.8577 29.1234L22.7226 29.2495V30.361V31.4726H22.1979H21.6732V30.451C21.6732 29.263 21.6359 29.1144 21.3132 29.0194C21.1951 28.9846 20.7189 28.9696 20.0639 28.98C19.0269 28.9964 19.0027 28.9993 18.8702 29.1231L18.7349 29.2495V30.361V31.4726H18.2102H17.6855V30.4545C17.6855 29.2529 17.6514 29.1138 17.3356 29.0267C17.2125 28.9928 16.4683 28.9711 15.4162 28.971L13.6979 28.9707V27.9803V26.99L14.4193 26.9896C15.3169 26.9893 15.5162 26.9413 15.6172 26.7013C15.7286 26.4365 15.7286 15.6592 15.6172 15.3943C15.5162 15.1543 15.3169 15.1064 14.4193 15.106L13.6979 15.1057V14.1153V13.125L15.4162 13.1247C16.4683 13.1245 17.2125 13.1029 17.3356 13.069C17.6514 12.9819 17.6855 12.8427 17.6855 11.6411V10.623H18.2102H18.7349V11.7346ZM18.4988 15.1662C18.208 15.325 18.2126 15.2901 18.2114 17.338L18.2104 19.0153C18.2103 19.1537 18.2654 19.2864 18.3636 19.3839C18.4618 19.4815 18.5947 19.5362 18.7332 19.5362H20.0219C21.6123 19.5362 21.9073 19.5027 22.3676 19.2694C23.2948 18.7995 23.7515 17.5966 23.3843 16.5917C23.0798 15.7584 22.4749 15.2864 21.5514 15.1613C21.0007 15.0867 18.6374 15.0905 18.4988 15.1662ZM21.859 16.2194C22.344 16.4438 22.6015 16.9006 22.5515 17.4482C22.517 17.8263 22.3529 18.1324 22.0865 18.3158C21.7164 18.5706 21.5734 18.5933 20.3221 18.5957L19.1547 18.598V17.347V16.0961L20.3746 16.0966C21.544 16.097 21.6055 16.1022 21.859 16.2194ZM18.3668 21.7183C18.2666 21.8178 18.2102 21.9532 18.2102 22.0944V24.2529C18.2102 25.7849 18.2295 26.6676 18.2643 26.7322C18.3956 26.976 18.5112 26.99 20.4075 26.99C22.5414 26.99 22.8566 26.9573 23.438 26.6761C24.3626 26.2289 24.8717 25.3681 24.8732 24.2499C24.8748 23.054 24.2453 22.1376 23.1248 21.7047C22.8722 21.6071 22.7064 21.5987 20.6886 21.5814L18.744 21.5647C18.6028 21.5634 18.467 21.6188 18.3668 21.7183ZM22.9934 22.6783C23.3355 22.8452 23.6301 23.1454 23.791 23.4913C23.882 23.6868 23.9031 23.8304 23.9028 24.2534C23.9023 24.902 23.7869 25.1942 23.3808 25.5758C22.9469 25.9835 22.8507 25.9996 20.8504 25.9996H19.1547V24.2503V22.501L20.9255 22.5172L22.6964 22.5334L22.9934 22.6783Z" stroke="white" stroke-width="0.428793" mask="url(#path-3-outside-1_225_38671)"/>
<defs>
<linearGradient id="paint0_linear_225_38671" x1="5.75299" y1="7.1991" x2="37.3473" y2="36.4985" gradientUnits="userSpaceOnUse">
<stop stop-color="#00FFA3" stop-opacity="0.6"/>
<stop offset="1" stop-color="#4B48F1"/>
</linearGradient>
<linearGradient id="paint1_linear_225_38671" x1="15.2309" y1="13.888" x2="30.3965" y2="24.0853" gradientUnits="userSpaceOnUse">
<stop stop-color="#00FFA3" stop-opacity="0.6"/>
<stop offset="1" stop-color="#4B48F1"/>
</linearGradient>
<linearGradient id="paint2_linear_225_38671" x1="15" y1="13.5802" x2="30.8491" y2="24.1876" gradientUnits="userSpaceOnUse">
<stop stop-color="#00FFA3" stop-opacity="0.6"/>
<stop offset="1" stop-color="#4B48F1"/>
</linearGradient>
</defs>
</svg>
